<svg width="24" height="24" viewBox="0 0 24 24" fill="none"
  xmlns="http://www.w3.org/2000/svg">
  <path d="M15.3284 4.5L10 9.82845L14 13.8285L19.3284 8.5L15.3284 4.5Z" fill="white"/>
  <path d="M10 9.82845L2.82843 17C2.56578 17.2627 2.35744 17.5745 2.2153 17.9176C2.07316 18.2608 2 18.6286 2 19C2 19.3715 2.07316 19.7393 2.2153 20.0824C2.35744 20.4256 2.56578 20.7374 2.82843 21C3.09107 21.2627 3.40287 21.471 3.74603 21.6132C4.0892 21.7553 4.45699 21.8285 4.82843 21.8285C5.19986 21.8285 5.56766 21.7553 5.91082 21.6132C6.25398 21.471 6.56578 21.2627 6.82843 21L14 13.8285M10 9.82845L15.3284 4.5L19.3284 8.5L14 13.8285M10 9.82845L14 13.8285" stroke="white" stroke-width="2" stroke-linecap="round" stroke-linejoin="round"/>
  <circle cx="7.5" cy="4.5" r="1.5" fill="white"/>
  <circle cx="21" cy="13" r="2" fill="white"/>
  <circle cx="19" cy="1" r="1" fill="white"/>
</svg>
